{
	"patcher" : 	{
		"fileversion" : 1,
		"appversion" : 		{
			"major" : 8,
			"minor" : 1,
			"revision" : 1,
			"architecture" : "x64",
			"modernui" : 1
		}
,
		"classnamespace" : "box",
		"rect" : [ 73.0, 79.0, 1319.0, 903.0 ],
		"bglocked" : 0,
		"openinpresentation" : 0,
		"default_fontsize" : 12.0,
		"default_fontface" : 0,
		"default_fontname" : "Arial",
		"gridonopen" : 1,
		"gridsize" : [ 15.0, 15.0 ],
		"gridsnaponopen" : 1,
		"objectsnaponopen" : 1,
		"statusbarvisible" : 2,
		"toolbarvisible" : 1,
		"lefttoolbarpinned" : 0,
		"toptoolbarpinned" : 0,
		"righttoolbarpinned" : 0,
		"bottomtoolbarpinned" : 0,
		"toolbars_unpinned_last_save" : 0,
		"tallnewobj" : 0,
		"boxanimatetime" : 200,
		"enablehscroll" : 1,
		"enablevscroll" : 1,
		"devicewidth" : 0.0,
		"description" : "",
		"digest" : "",
		"tags" : "",
		"style" : "",
		"subpatcher_template" : "",
		"boxes" : [ 			{
				"box" : 				{
					"id" : "obj-53",
					"maxclass" : "newobj",
					"numinlets" : 3,
					"numoutlets" : 2,
					"outlettype" : [ "FullPacket", "" ],
					"patching_rect" : [ 99.0, 118.0, 100.0, 22.0 ],
					"text" : "mo.velocity"
				}

			}
, 			{
				"box" : 				{
					"id" : "obj-52",
					"maxclass" : "message",
					"numinlets" : 2,
					"numoutlets" : 1,
					"outlettype" : [ "" ],
					"patching_rect" : [ 665.0, 50.0, 50.0, 22.0 ],
					"text" : "$1 0"
				}

			}
, 			{
				"box" : 				{
					"id" : "obj-47",
					"maxclass" : "message",
					"numinlets" : 2,
					"numoutlets" : 1,
					"outlettype" : [ "" ],
					"patching_rect" : [ 592.0, 270.0, 50.0, 22.0 ],
					"text" : "clear"
				}

			}
, 			{
				"box" : 				{
					"id" : "obj-38",
					"maxclass" : "toggle",
					"numinlets" : 1,
					"numoutlets" : 1,
					"outlettype" : [ "int" ],
					"parameter_enable" : 0,
					"patching_rect" : [ 402.0, 95.0, 24.0, 24.0 ]
				}

			}
, 			{
				"box" : 				{
					"id" : "obj-35",
					"maxclass" : "newobj",
					"numinlets" : 2,
					"numoutlets" : 1,
					"outlettype" : [ "bang" ],
					"patching_rect" : [ 406.0, 165.0, 100.0, 22.0 ],
					"text" : "metro 51"
				}

			}
, 			{
				"box" : 				{
					"id" : "obj-34",
					"maxclass" : "newobj",
					"numinlets" : 5,
					"numoutlets" : 4,
					"outlettype" : [ "int", "", "", "int" ],
					"patching_rect" : [ 410.0, 202.0, 100.0, 22.0 ],
					"text" : "counter"
				}

			}
, 			{
				"box" : 				{
					"id" : "obj-33",
					"maxclass" : "button",
					"numinlets" : 1,
					"numoutlets" : 1,
					"outlettype" : [ "bang" ],
					"parameter_enable" : 0,
					"patching_rect" : [ 434.0, 250.0, 24.0, 24.0 ]
				}

			}
, 			{
				"box" : 				{
					"format" : 6,
					"id" : "obj-31",
					"maxclass" : "flonum",
					"numinlets" : 1,
					"numoutlets" : 2,
					"outlettype" : [ "", "bang" ],
					"parameter_enable" : 0,
					"patching_rect" : [ 1581.0, 272.0, 119.0, 22.0 ]
				}

			}
, 			{
				"box" : 				{
					"id" : "obj-29",
					"maxclass" : "newobj",
					"numinlets" : 2,
					"numoutlets" : 1,
					"outlettype" : [ "float" ],
					"patching_rect" : [ 1637.0, 221.0, 100.0, 22.0 ],
					"text" : "- 0."
				}

			}
, 			{
				"box" : 				{
					"id" : "obj-26",
					"maxclass" : "newobj",
					"numinlets" : 1,
					"numoutlets" : 2,
					"outlettype" : [ "float", "float" ],
					"patching_rect" : [ 1625.0, 170.0, 100.0, 22.0 ],
					"text" : "t f f"
				}

			}
, 			{
				"box" : 				{
					"format" : 6,
					"id" : "obj-12",
					"maxclass" : "flonum",
					"numinlets" : 1,
					"numoutlets" : 2,
					"outlettype" : [ "", "bang" ],
					"parameter_enable" : 0,
					"patching_rect" : [ 1650.0, 108.0, 50.0, 22.0 ]
				}

			}
, 			{
				"box" : 				{
					"id" : "obj-3",
					"maxclass" : "newobj",
					"numinlets" : 1,
					"numoutlets" : 1,
					"outlettype" : [ "" ],
					"patching_rect" : [ 983.0, 202.0, 100.0, 22.0 ]
				}

			}
, 			{
				"box" : 				{
					"id" : "obj-56",
					"linecount" : 5,
					"maxclass" : "message",
					"numinlets" : 2,
					"numoutlets" : 1,
					"outlettype" : [ "" ],
					"patching_rect" : [ 1402.0, 206.0, 50.0, 76.0 ],
					"text" : "FullPacket 48 105553172421088"
				}

			}
, 			{
				"box" : 				{
					"id" : "obj-51",
					"maxclass" : "newobj",
					"numinlets" : 1,
					"numoutlets" : 1,
					"outlettype" : [ "" ],
					"patching_rect" : [ 709.0, 170.0, 100.0, 22.0 ],
					"text" : "o.timetag /time"
				}

			}
, 			{
				"box" : 				{
					"id" : "obj-50",
					"maxclass" : "newobj",
					"numinlets" : 3,
					"numoutlets" : 2,
					"outlettype" : [ "FullPacket", "" ],
					"patching_rect" : [ 119.0, 202.0, 100.0, 22.0 ],
					"text" : "mo.acceleration"
				}

			}
, 			{
				"box" : 				{
					"id" : "obj-49",
					"maxclass" : "newobj",
					"numinlets" : 2,
					"numoutlets" : 1,
					"outlettype" : [ "FullPacket" ],
					"patching_rect" : [ 551.0, 101.0, 100.0, 22.0 ],
					"text" : "mo.jerk"
				}

			}
, 			{
				"box" : 				{
					"format" : 6,
					"id" : "obj-45",
					"maxclass" : "flonum",
					"numinlets" : 1,
					"numoutlets" : 2,
					"outlettype" : [ "", "bang" ],
					"parameter_enable" : 0,
					"patching_rect" : [ 1581.0, 16.0, 50.0, 22.0 ]
				}

			}
, 			{
				"box" : 				{
					"id" : "obj-46",
					"maxclass" : "newobj",
					"numinlets" : 2,
					"numoutlets" : 1,
					"outlettype" : [ "signal" ],
					"patching_rect" : [ 1565.0, 57.0, 52.0, 22.0 ],
					"text" : "phasor~"
				}

			}
, 			{
				"box" : 				{
					"id" : "obj-43",
					"maxclass" : "newobj",
					"numinlets" : 1,
					"numoutlets" : 1,
					"outlettype" : [ "" ],
					"patcher" : 					{
						"fileversion" : 1,
						"appversion" : 						{
							"major" : 8,
							"minor" : 1,
							"revision" : 1,
							"architecture" : "x64",
							"modernui" : 1
						}
,
						"classnamespace" : "box",
						"rect" : [ 0.0, 0.0, 640.0, 480.0 ],
						"bglocked" : 0,
						"openinpresentation" : 0,
						"default_fontsize" : 12.0,
						"default_fontface" : 0,
						"default_fontname" : "Arial",
						"gridonopen" : 1,
						"gridsize" : [ 15.0, 15.0 ],
						"gridsnaponopen" : 1,
						"objectsnaponopen" : 1,
						"statusbarvisible" : 2,
						"toolbarvisible" : 1,
						"lefttoolbarpinned" : 0,
						"toptoolbarpinned" : 0,
						"righttoolbarpinned" : 0,
						"bottomtoolbarpinned" : 0,
						"toolbars_unpinned_last_save" : 0,
						"tallnewobj" : 0,
						"boxanimatetime" : 200,
						"enablehscroll" : 1,
						"enablevscroll" : 1,
						"devicewidth" : 0.0,
						"description" : "",
						"digest" : "",
						"tags" : "",
						"style" : "",
						"subpatcher_template" : "",
						"boxes" : [ 							{
								"box" : 								{
									"id" : "obj-35",
									"maxclass" : "newobj",
									"numinlets" : 2,
									"numoutlets" : 1,
									"outlettype" : [ "float" ],
									"patching_rect" : [ 50.0, 100.0, 31.0, 22.0 ],
									"text" : "* -1."
								}

							}
, 							{
								"box" : 								{
									"id" : "obj-34",
									"maxclass" : "newobj",
									"numinlets" : 2,
									"numoutlets" : 1,
									"outlettype" : [ "" ],
									"patching_rect" : [ 50.0, 144.0, 100.0, 22.0 ],
									"text" : "pack f f"
								}

							}
, 							{
								"box" : 								{
									"id" : "obj-33",
									"maxclass" : "message",
									"numinlets" : 2,
									"numoutlets" : 1,
									"outlettype" : [ "" ],
									"patching_rect" : [ 50.0, 172.0, 100.0, 22.0 ],
									"text" : "setminmax $1 $2"
								}

							}
, 							{
								"box" : 								{
									"comment" : "",
									"id" : "obj-38",
									"index" : 1,
									"maxclass" : "inlet",
									"numinlets" : 0,
									"numoutlets" : 1,
									"outlettype" : [ "" ],
									"patching_rect" : [ 44.0, 40.0, 30.0, 30.0 ]
								}

							}
, 							{
								"box" : 								{
									"comment" : "",
									"id" : "obj-39",
									"index" : 1,
									"maxclass" : "outlet",
									"numinlets" : 1,
									"numoutlets" : 0,
									"patching_rect" : [ 50.0, 254.0, 30.0, 30.0 ]
								}

							}
 ],
						"lines" : [ 							{
								"patchline" : 								{
									"destination" : [ "obj-39", 0 ],
									"source" : [ "obj-33", 0 ]
								}

							}
, 							{
								"patchline" : 								{
									"destination" : [ "obj-33", 0 ],
									"source" : [ "obj-34", 0 ]
								}

							}
, 							{
								"patchline" : 								{
									"destination" : [ "obj-34", 0 ],
									"source" : [ "obj-35", 0 ]
								}

							}
, 							{
								"patchline" : 								{
									"destination" : [ "obj-34", 1 ],
									"order" : 0,
									"source" : [ "obj-38", 0 ]
								}

							}
, 							{
								"patchline" : 								{
									"destination" : [ "obj-35", 0 ],
									"order" : 1,
									"source" : [ "obj-38", 0 ]
								}

							}
 ]
					}
,
					"patching_rect" : [ 1107.0, 723.0, 49.0, 22.0 ],
					"saved_object_attributes" : 					{
						"description" : "",
						"digest" : "",
						"globalpatchername" : "",
						"tags" : ""
					}
,
					"text" : "p range"
				}

			}
, 			{
				"box" : 				{
					"format" : 6,
					"id" : "obj-44",
					"maxclass" : "flonum",
					"numinlets" : 1,
					"numoutlets" : 2,
					"outlettype" : [ "", "bang" ],
					"parameter_enable" : 0,
					"patching_rect" : [ 1107.0, 687.0, 50.0, 22.0 ]
				}

			}
, 			{
				"box" : 				{
					"id" : "obj-41",
					"maxclass" : "newobj",
					"numinlets" : 1,
					"numoutlets" : 1,
					"outlettype" : [ "" ],
					"patcher" : 					{
						"fileversion" : 1,
						"appversion" : 						{
							"major" : 8,
							"minor" : 1,
							"revision" : 1,
							"architecture" : "x64",
							"modernui" : 1
						}
,
						"classnamespace" : "box",
						"rect" : [ 0.0, 0.0, 640.0, 480.0 ],
						"bglocked" : 0,
						"openinpresentation" : 0,
						"default_fontsize" : 12.0,
						"default_fontface" : 0,
						"default_fontname" : "Arial",
						"gridonopen" : 1,
						"gridsize" : [ 15.0, 15.0 ],
						"gridsnaponopen" : 1,
						"objectsnaponopen" : 1,
						"statusbarvisible" : 2,
						"toolbarvisible" : 1,
						"lefttoolbarpinned" : 0,
						"toptoolbarpinned" : 0,
						"righttoolbarpinned" : 0,
						"bottomtoolbarpinned" : 0,
						"toolbars_unpinned_last_save" : 0,
						"tallnewobj" : 0,
						"boxanimatetime" : 200,
						"enablehscroll" : 1,
						"enablevscroll" : 1,
						"devicewidth" : 0.0,
						"description" : "",
						"digest" : "",
						"tags" : "",
						"style" : "",
						"subpatcher_template" : "",
						"boxes" : [ 							{
								"box" : 								{
									"id" : "obj-35",
									"maxclass" : "newobj",
									"numinlets" : 2,
									"numoutlets" : 1,
									"outlettype" : [ "float" ],
									"patching_rect" : [ 50.0, 100.0, 31.0, 22.0 ],
									"text" : "* -1."
								}

							}
, 							{
								"box" : 								{
									"id" : "obj-34",
									"maxclass" : "newobj",
									"numinlets" : 2,
									"numoutlets" : 1,
									"outlettype" : [ "" ],
									"patching_rect" : [ 50.0, 144.0, 100.0, 22.0 ],
									"text" : "pack f f"
								}

							}
, 							{
								"box" : 								{
									"id" : "obj-33",
									"maxclass" : "message",
									"numinlets" : 2,
									"numoutlets" : 1,
									"outlettype" : [ "" ],
									"patching_rect" : [ 50.0, 172.0, 100.0, 22.0 ],
									"text" : "setminmax $1 $2"
								}

							}
, 							{
								"box" : 								{
									"comment" : "",
									"id" : "obj-38",
									"index" : 1,
									"maxclass" : "inlet",
									"numinlets" : 0,
									"numoutlets" : 1,
									"outlettype" : [ "" ],
									"patching_rect" : [ 44.0, 40.0, 30.0, 30.0 ]
								}

							}
, 							{
								"box" : 								{
									"comment" : "",
									"id" : "obj-39",
									"index" : 1,
									"maxclass" : "outlet",
									"numinlets" : 1,
									"numoutlets" : 0,
									"patching_rect" : [ 50.0, 254.0, 30.0, 30.0 ]
								}

							}
 ],
						"lines" : [ 							{
								"patchline" : 								{
									"destination" : [ "obj-39", 0 ],
									"source" : [ "obj-33", 0 ]
								}

							}
, 							{
								"patchline" : 								{
									"destination" : [ "obj-33", 0 ],
									"source" : [ "obj-34", 0 ]
								}

							}
, 							{
								"patchline" : 								{
									"destination" : [ "obj-34", 0 ],
									"source" : [ "obj-35", 0 ]
								}

							}
, 							{
								"patchline" : 								{
									"destination" : [ "obj-34", 1 ],
									"order" : 0,
									"source" : [ "obj-38", 0 ]
								}

							}
, 							{
								"patchline" : 								{
									"destination" : [ "obj-35", 0 ],
									"order" : 1,
									"source" : [ "obj-38", 0 ]
								}

							}
 ]
					}
,
					"patching_rect" : [ 1193.0, 744.0, 49.0, 22.0 ],
					"saved_object_attributes" : 					{
						"description" : "",
						"digest" : "",
						"globalpatchername" : "",
						"tags" : ""
					}
,
					"text" : "p range"
				}

			}
, 			{
				"box" : 				{
					"format" : 6,
					"id" : "obj-42",
					"maxclass" : "flonum",
					"numinlets" : 1,
					"numoutlets" : 2,
					"outlettype" : [ "", "bang" ],
					"parameter_enable" : 0,
					"patching_rect" : [ 1193.0, 712.0, 123.0, 22.0 ]
				}

			}
, 			{
				"box" : 				{
					"id" : "obj-40",
					"maxclass" : "newobj",
					"numinlets" : 1,
					"numoutlets" : 1,
					"outlettype" : [ "" ],
					"patcher" : 					{
						"fileversion" : 1,
						"appversion" : 						{
							"major" : 8,
							"minor" : 1,
							"revision" : 1,
							"architecture" : "x64",
							"modernui" : 1
						}
,
						"classnamespace" : "box",
						"rect" : [ 0.0, 0.0, 640.0, 480.0 ],
						"bglocked" : 0,
						"openinpresentation" : 0,
						"default_fontsize" : 12.0,
						"default_fontface" : 0,
						"default_fontname" : "Arial",
						"gridonopen" : 1,
						"gridsize" : [ 15.0, 15.0 ],
						"gridsnaponopen" : 1,
						"objectsnaponopen" : 1,
						"statusbarvisible" : 2,
						"toolbarvisible" : 1,
						"lefttoolbarpinned" : 0,
						"toptoolbarpinned" : 0,
						"righttoolbarpinned" : 0,
						"bottomtoolbarpinned" : 0,
						"toolbars_unpinned_last_save" : 0,
						"tallnewobj" : 0,
						"boxanimatetime" : 200,
						"enablehscroll" : 1,
						"enablevscroll" : 1,
						"devicewidth" : 0.0,
						"description" : "",
						"digest" : "",
						"tags" : "",
						"style" : "",
						"subpatcher_template" : "",
						"boxes" : [ 							{
								"box" : 								{
									"id" : "obj-35",
									"maxclass" : "newobj",
									"numinlets" : 2,
									"numoutlets" : 1,
									"outlettype" : [ "float" ],
									"patching_rect" : [ 50.0, 100.0, 31.0, 22.0 ],
									"text" : "* -1."
								}

							}
, 							{
								"box" : 								{
									"id" : "obj-34",
									"maxclass" : "newobj",
									"numinlets" : 2,
									"numoutlets" : 1,
									"outlettype" : [ "" ],
									"patching_rect" : [ 50.0, 144.0, 100.0, 22.0 ],
									"text" : "pack f f"
								}

							}
, 							{
								"box" : 								{
									"id" : "obj-33",
									"maxclass" : "message",
									"numinlets" : 2,
									"numoutlets" : 1,
									"outlettype" : [ "" ],
									"patching_rect" : [ 50.0, 172.0, 100.0, 22.0 ],
									"text" : "setminmax $1 $2"
								}

							}
, 							{
								"box" : 								{
									"comment" : "",
									"id" : "obj-38",
									"index" : 1,
									"maxclass" : "inlet",
									"numinlets" : 0,
									"numoutlets" : 1,
									"outlettype" : [ "" ],
									"patching_rect" : [ 44.0, 40.0, 30.0, 30.0 ]
								}

							}
, 							{
								"box" : 								{
									"comment" : "",
									"id" : "obj-39",
									"index" : 1,
									"maxclass" : "outlet",
									"numinlets" : 1,
									"numoutlets" : 0,
									"patching_rect" : [ 50.0, 254.0, 30.0, 30.0 ]
								}

							}
 ],
						"lines" : [ 							{
								"patchline" : 								{
									"destination" : [ "obj-39", 0 ],
									"source" : [ "obj-33", 0 ]
								}

							}
, 							{
								"patchline" : 								{
									"destination" : [ "obj-33", 0 ],
									"source" : [ "obj-34", 0 ]
								}

							}
, 							{
								"patchline" : 								{
									"destination" : [ "obj-34", 0 ],
									"source" : [ "obj-35", 0 ]
								}

							}
, 							{
								"patchline" : 								{
									"destination" : [ "obj-34", 1 ],
									"order" : 0,
									"source" : [ "obj-38", 0 ]
								}

							}
, 							{
								"patchline" : 								{
									"destination" : [ "obj-35", 0 ],
									"order" : 1,
									"source" : [ "obj-38", 0 ]
								}

							}
 ]
					}
,
					"patching_rect" : [ 1419.5, 716.0, 49.0, 22.0 ],
					"saved_object_attributes" : 					{
						"description" : "",
						"digest" : "",
						"globalpatchername" : "",
						"tags" : ""
					}
,
					"text" : "p range"
				}

			}
, 			{
				"box" : 				{
					"format" : 6,
					"id" : "obj-37",
					"maxclass" : "flonum",
					"numinlets" : 1,
					"numoutlets" : 2,
					"outlettype" : [ "", "bang" ],
					"parameter_enable" : 0,
					"patching_rect" : [ 1419.5, 684.0, 147.0, 22.0 ]
				}

			}
, 			{
				"box" : 				{
					"id" : "obj-30",
					"maxclass" : "message",
					"numinlets" : 2,
					"numoutlets" : 1,
					"outlettype" : [ "" ],
					"patching_rect" : [ 1478.0, 170.0, 50.0, 22.0 ],
					"text" : "$1 $1"
				}

			}
, 			{
				"box" : 				{
					"id" : "obj-28",
					"maxclass" : "newobj",
					"numinlets" : 2,
					"numoutlets" : 1,
					"outlettype" : [ "float" ],
					"patching_rect" : [ 1478.0, 132.0, 100.0, 22.0 ],
					"text" : "snapshot~ 10"
				}

			}
, 			{
				"box" : 				{
					"format" : 6,
					"id" : "obj-27",
					"maxclass" : "flonum",
					"numinlets" : 1,
					"numoutlets" : 2,
					"outlettype" : [ "", "bang" ],
					"parameter_enable" : 0,
					"patching_rect" : [ 1494.0, 38.0, 50.0, 22.0 ]
				}

			}
, 			{
				"box" : 				{
					"id" : "obj-25",
					"maxclass" : "newobj",
					"numinlets" : 1,
					"numoutlets" : 1,
					"outlettype" : [ "FullPacket" ],
					"patching_rect" : [ 1478.0, 206.0, 100.0, 22.0 ],
					"text" : "o.pack /pos"
				}

			}
, 			{
				"box" : 				{
					"id" : "obj-24",
					"maxclass" : "newobj",
					"numinlets" : 2,
					"numoutlets" : 1,
					"outlettype" : [ "signal" ],
					"patching_rect" : [ 1478.0, 79.0, 43.0, 22.0 ],
					"text" : "cycle~"
				}

			}
, 			{
				"box" : 				{
					"id" : "obj-23",
					"maxclass" : "multislider",
					"numinlets" : 1,
					"numoutlets" : 2,
					"outlettype" : [ "", "" ],
					"parameter_enable" : 0,
					"patching_rect" : [ 1355.5, 756.0, 249.0, 113.0 ],
					"setminmax" : [ -262.0, 262.0 ],
					"setstyle" : 3,
					"size" : 2
				}

			}
, 			{
				"box" : 				{
					"id" : "obj-22",
					"maxclass" : "multislider",
					"numinlets" : 1,
					"numoutlets" : 2,
					"outlettype" : [ "", "" ],
					"parameter_enable" : 0,
					"patching_rect" : [ 1082.0, 760.0, 249.0, 113.0 ],
					"setminmax" : [ -262.0, 262.0 ],
					"setstyle" : 3,
					"size" : 2
				}

			}
, 			{
				"box" : 				{
					"id" : "obj-21",
					"maxclass" : "multislider",
					"numinlets" : 1,
					"numoutlets" : 2,
					"outlettype" : [ "", "" ],
					"parameter_enable" : 0,
					"patching_rect" : [ 813.0, 760.0, 249.0, 113.0 ],
					"setminmax" : [ -262.0, 262.0 ],
					"setstyle" : 3,
					"size" : 2
				}

			}
, 			{
				"box" : 				{
					"id" : "obj-20",
					"maxclass" : "newobj",
					"numinlets" : 1,
					"numoutlets" : 4,
					"outlettype" : [ "", "", "", "FullPacket" ],
					"patching_rect" : [ 964.0, 724.0, 129.0, 22.0 ],
					"text" : "o.route /vel /accel /jerk"
				}

			}
, 			{
				"box" : 				{
					"id" : "obj-19",
					"maxclass" : "newobj",
					"numinlets" : 1,
					"numoutlets" : 2,
					"outlettype" : [ "", "FullPacket" ],
					"patching_rect" : [ 964.0, 691.0, 131.0, 22.0 ],
					"text" : "o.route /movement/in"
				}

			}
, 			{
				"box" : 				{
					"id" : "obj-18",
					"maxclass" : "newobj",
					"numinlets" : 1,
					"numoutlets" : 2,
					"outlettype" : [ "", "FullPacket" ],
					"patching_rect" : [ 1284.0, 79.0, 100.0, 22.0 ],
					"text" : "o.select /pos"
				}

			}
, 			{
				"box" : 				{
					"fontface" : 0,
					"fontsize" : 12.0,
					"id" : "obj-17",
					"maxclass" : "o.expr.codebox",
					"numinlets" : 1,
					"numoutlets" : 2,
					"outlettype" : [ "FullPacket", "FullPacket" ],
					"patching_rect" : [ 1181.0, 35.0, 234.0, 32.0 ],
					"text" : "/pos = [/horizontal, /vertical]"
				}

			}
, 			{
				"box" : 				{
					"fontface" : 0,
					"fontsize" : 12.0,
					"id" : "obj-16",
					"maxclass" : "o.compose",
					"numinlets" : 2,
					"numoutlets" : 1,
					"outlettype" : [ "" ],
					"patching_rect" : [ 1078.0, 160.0, 280.0, 24.0 ],
					"saved_bundle_data" : [ 35, 98, 117, 110, 100, 108, 101, 0, 0, 0, 0, 0, 0, 0, 0, 0, 0, 0, 0, 20, 47, 112, 111, 115, 0, 0, 0, 0, 44, 105, 105, 0, 0, 0, 1, 63, 0, 0, 0, 79 ],
					"saved_bundle_length" : 40,
					"text" : "/pos : [319, 79]"
				}

			}
, 			{
				"box" : 				{
					"id" : "obj-15",
					"maxclass" : "newobj",
					"numinlets" : 0,
					"numoutlets" : 1,
					"outlettype" : [ "FullPacket" ],
					"patching_rect" : [ 1067.0, 84.0, 103.0, 22.0 ],
					"text" : "cnmat.o.io.mouse"
				}

			}
, 			{
				"box" : 				{
					"id" : "obj-14",
					"maxclass" : "newobj",
					"numinlets" : 2,
					"numoutlets" : 1,
					"outlettype" : [ "int" ],
					"patching_rect" : [ 917.0, 108.0, 100.0, 22.0 ],
					"text" : "* 2"
				}

			}
, 			{
				"box" : 				{
					"id" : "obj-13",
					"maxclass" : "number",
					"numinlets" : 1,
					"numoutlets" : 2,
					"outlettype" : [ "", "bang" ],
					"parameter_enable" : 0,
					"patching_rect" : [ 925.0, 69.0, 59.0, 22.0 ]
				}

			}
, 			{
				"box" : 				{
					"fontface" : 0,
					"fontsize" : 12.0,
					"id" : "obj-10",
					"linecount" : 21,
					"maxclass" : "o.compose",
					"numinlets" : 2,
					"numoutlets" : 1,
					"outlettype" : [ "" ],
					"patching_rect" : [ 70.5, 350.0, 399.0, 296.0 ],
					"saved_bundle_data" : [ 35, 98, 117, 110, 100, 108, 101, 0, 0, 0, 0, 0, 0, 0, 0, 0, 0, 0, 0, 20, 47, 105, 110, 0, 44, 100, 105, 0, 64, -63, 119, 0, 0, 0, 0, 0, 0, 0, 0, 0, 0, 0, 0, 16, 47, 97, 100, 100, 114, 115, 0, 0, 44, 115, 0, 0, 47, 105, 110, 0, 0, 0, 0, 20, 47, 116, 105, 109, 101, 0, 0, 0, 44, 116, 0, 0, -31, -114, 62, -95, 30, 122, -75, -59, 0, 0, 0, 28, 47, 112, 114, 101, 118, 47, 105, 110, 0, 0, 0, 0, 44, 100, 105, 0, 64, -63, 118, -128, 0, 0, 0, 0, 0, 0, 0, 0, 0, 0, 0, 20, 47, 112, 114, 101, 118, 47, 97, 100, 100, 114, 115, 0, 44, 115, 0, 0, 47, 105, 110, 0, 0, 0, 0, 24, 47, 112, 114, 101, 118, 47, 116, 105, 109, 101, 0, 0, 44, 116, 0, 0, -31, -114, 62, -95, 17, 96, 74, 53, 0, 0, 0, 44, 47, 112, 114, 101, 118, 47, 109, 111, 118, 101, 109, 101, 110, 116, 47, 105, 110, 47, 118, 101, 108, 0, 0, 0, 44, 100, 100, 0, 64, 51, -104, -98, 97, 12, 57, 36, 0, 0, 0, 0, 0, 0, 0, 0, 0, 0, 0, 44, 47, 112, 114, 101, 118, 47, 109, 111, 118, 101, 109, 101, 110, 116, 47, 105, 110, 47, 97, 99, 99, 101, 108, 0, 44, 100, 100, 0, -65, -23, 0, 111, -56, -41, 108, 9, 0, 0, 0, 0, 0, 0, 0, 0, 0, 0, 0, 32, 47, 112, 114, 101, 118, 47, 106, 101, 114, 107, 0, 0, 44, 100, 100, 0, -64, 56, -106, -54, -110, 67, -7, -7, 0, 0, 0, 0, 0, 0, 0, 0, 0, 0, 0, 44, 47, 112, 114, 101, 118, 47, 109, 111, 118, 101, 109, 101, 110, 116, 47, 105, 110, 47, 106, 101, 114, 107, 0, 0, 44, 100, 100, 0, -64, 56, -106, -54, -110, 67, -7, -7, 0, 0, 0, 0, 0, 0, 0, 0, 0, 0, 0, 20, 47, 100, 117, 114, 0, 0, 0, 0, 44, 100, 0, 0, 63, -86, 52, -41, 32, 26, 52, -41, 0, 0, 0, 24, 47, 100, 101, 108, 116, 97, 0, 0, 44, 100, 105, 0, 63, -16, 0, 0, 0, 0, 0, 0, 0, 0, 0, 0, 0, 0, 0, 20, 47, 100, 105, 115, 116, 0, 0, 0, 44, 100, 0, 0, 63, -16, 0, 0, 0, 0, 0, 0, 0, 0, 0, 28, 47, 118, 101, 108, 0, 0, 0, 0, 44, 100, 100, 0, 64, 51, -119, -122, 96, 14, 55, -111, 0, 0, 0, 0, 0, 0, 0, 0, 0, 0, 0, 40, 47, 109, 111, 118, 101, 109, 101, 110, 116, 47, 105, 110, 47, 118, 101, 108, 0, 0, 0, 0, 44, 100, 100, 0, 64, 51, -119, -122, 96, 14, 55, -111, 0, 0, 0, 0, 0, 0, 0, 0, 0, 0, 0, 32, 47, 112, 114, 101, 118, 47, 118, 101, 108, 0, 0, 0, 44, 100, 100, 0, 64, 51, -104, -98, 97, 12, 57, 36, 0, 0, 0, 0, 0, 0, 0, 0, 0, 0, 0, 28, 47, 97, 99, 99, 0, 0, 0, 0, 44, 100, 100, 0, -65, -14, 110, 61, 121, -58, -118, -71, 0, 0, 0, 0, 0, 0, 0, 0, 0, 0, 0, 40, 47, 109, 111, 118, 101, 109, 101, 110, 116, 47, 105, 110, 47, 97, 99, 99, 101, 108, 0, 0, 44, 100, 100, 0, -65, -14, 110, 61, 121, -58, -118, -71, 0, 0, 0, 0, 0, 0, 0, 0, 0, 0, 0, 32, 47, 112, 114, 101, 118, 47, 97, 99, 99, 0, 0, 0, 44, 100, 100, 0, -65, -23, 0, 111, -56, -41, 108, 9, 0, 0, 0, 0, 0, 0, 0, 0, 0, 0, 0, 28, 47, 106, 101, 114, 107, 0, 0, 0, 44, 100, 100, 0, -64, 28, -10, 121, -8, -53, 126, 38, 0, 0, 0, 0, 0, 0, 0, 0, 0, 0, 0, 40, 47, 109, 111, 118, 101, 109, 101, 110, 116, 47, 105, 110, 47, 106, 101, 114, 107, 0, 0, 0, 44, 100, 100, 0, -64, 28, -10, 121, -8, -53, 126, 38, 0, 0, 0, 0, 0, 0, 0, 0 ],
					"saved_bundle_length" : 724,
					"text" : "/in : [8942., 0],\n/addrs : \"/in\",\n/time : 2019-12-01T13:29:05.119060Z,\n/prev/in : [8941., 0],\n/prev/addrs : \"/in\",\n/prev/time : 2019-12-01T13:29:05.067875Z,\n/prev/movement/in/vel : [19.5962, 0.],\n/prev/movement/in/accel : [-0.781303, 0.],\n/prev/jerk : [-24.589, 0.],\n/prev/movement/in/jerk : [-24.589, 0.],\n/dur : 0.0511844,\n/delta : [1., 0],\n/dist : 1.,\n/vel : [19.5372, 0.],\n/movement/in/vel : [19.5372, 0.],\n/prev/vel : [19.5962, 0.],\n/acc : [-1.15191, 0.],\n/movement/in/accel : [-1.15191, 0.],\n/prev/acc : [-0.781303, 0.],\n/jerk : [-7.2407, 0.],\n/movement/in/jerk : [-7.2407, 0.]"
				}

			}
, 			{
				"box" : 				{
					"id" : "obj-9",
					"maxclass" : "newobj",
					"numinlets" : 1,
					"numoutlets" : 1,
					"outlettype" : [ "FullPacket" ],
					"patching_rect" : [ 694.0, 779.0, 100.0, 22.0 ],
					"text" : "o.prepend /prev"
				}

			}
, 			{
				"box" : 				{
					"id" : "obj-8",
					"maxclass" : "newobj",
					"numinlets" : 1,
					"numoutlets" : 7,
					"outlettype" : [ "", "", "", "", "", "", "FullPacket" ],
					"patching_rect" : [ 571.0, 691.0, 209.0, 22.0 ],
					"text" : "o.route /prev /dist /delta /dur /vel /acc"
				}

			}
, 			{
				"box" : 				{
					"id" : "obj-7",
					"maxclass" : "newobj",
					"numinlets" : 1,
					"numoutlets" : 2,
					"outlettype" : [ "", "" ],
					"patching_rect" : [ 766.0, 723.0, 29.5, 22.0 ],
					"text" : "t l l"
				}

			}
, 			{
				"box" : 				{
					"id" : "obj-6",
					"maxclass" : "newobj",
					"numinlets" : 2,
					"numoutlets" : 1,
					"outlettype" : [ "FullPacket" ],
					"patching_rect" : [ 709.0, 215.0, 100.0, 22.0 ],
					"text" : "o.union"
				}

			}
, 			{
				"box" : 				{
					"fontface" : 0,
					"fontsize" : 12.0,
					"id" : "obj-5",
					"maxclass" : "o.expr.codebox",
					"numinlets" : 1,
					"numoutlets" : 2,
					"outlettype" : [ "FullPacket", "FullPacket" ],
					"patching_rect" : [ 709.0, 131.0, 176.0, 32.0 ],
					"text" : "/addrs = getaddresses() "
				}

			}
, 			{
				"box" : 				{
					"format" : 6,
					"id" : "obj-4",
					"maxclass" : "flonum",
					"numinlets" : 1,
					"numoutlets" : 2,
					"outlettype" : [ "", "bang" ],
					"parameter_enable" : 0,
					"patching_rect" : [ 719.0, 23.0, 50.0, 22.0 ]
				}

			}
, 			{
				"box" : 				{
					"id" : "obj-2",
					"maxclass" : "newobj",
					"numinlets" : 1,
					"numoutlets" : 1,
					"outlettype" : [ "FullPacket" ],
					"patching_rect" : [ 709.0, 87.0, 100.0, 22.0 ],
					"text" : "o.pack /in"
				}

			}
, 			{
				"box" : 				{
					"fontface" : 0,
					"fontsize" : 12.0,
					"id" : "obj-1",
					"linecount" : 31,
					"maxclass" : "o.expr.codebox",
					"numinlets" : 1,
					"numoutlets" : 2,
					"outlettype" : [ "FullPacket", "FullPacket" ],
					"patching_rect" : [ 709.0, 246.0, 975.0, 440.0 ],
					"presentation_linecount" : 31,
					"text" : "if( bound(/prev/time),\n  /dur = /time - /prev/time\n),\n\nmap(\n  lambda([addr],\n    if( bound(\"/prev\"+addr),\n      progn(\n        /delta = value(addr) - value(\"/prev\"+addr),\n        /dist = sqrt( sum( /delta*/delta) ),\n\n        /vel = /delta / /dur,\n        assign(\"/movement\"+addr+\"/vel\",  /vel ),\n\n        /prev/vel = value(\"/prev/movement\"+addr+\"/vel\"),\n        /acc = (/vel - /prev/vel) / /dur ,\n        assign(\"/movement\"+addr+\"/accel\", /acc ),\n\n        /prev/acc = value(\"/prev/movement\"+addr+\"/accel\"),\n        /jerk = (/acc - /prev/acc) / /dur,\n        assign(\"/movement\"+addr+\"/jerk\",  /jerk )\n\t     ),\n      progn(\n        assign(\"/movement\"+addr+\"/vel\", 0 ),\n        assign(\"/movement\"+addr+\"/accel\", 0 ),\n        assign(\"/movement\"+addr+\"/jerk\", 0 )\n\t     )\n    )\n  ), /addrs\n)#,\n# delete(/dist), delete(/delta), if( bound(/dur), delete(/dur))"
				}

			}
 ],
		"lines" : [ 			{
				"patchline" : 				{
					"destination" : [ "obj-10", 1 ],
					"order" : 1,
					"source" : [ "obj-1", 0 ]
				}

			}
, 			{
				"patchline" : 				{
					"destination" : [ "obj-8", 0 ],
					"order" : 0,
					"source" : [ "obj-1", 0 ]
				}

			}
, 			{
				"patchline" : 				{
					"destination" : [ "obj-28", 1 ],
					"source" : [ "obj-12", 0 ]
				}

			}
, 			{
				"patchline" : 				{
					"destination" : [ "obj-14", 0 ],
					"order" : 0,
					"source" : [ "obj-13", 0 ]
				}

			}
, 			{
				"patchline" : 				{
					"destination" : [ "obj-4", 0 ],
					"order" : 1,
					"source" : [ "obj-13", 0 ]
				}

			}
, 			{
				"patchline" : 				{
					"destination" : [ "obj-17", 0 ],
					"source" : [ "obj-15", 0 ]
				}

			}
, 			{
				"patchline" : 				{
					"destination" : [ "obj-18", 0 ],
					"source" : [ "obj-17", 0 ]
				}

			}
, 			{
				"patchline" : 				{
					"destination" : [ "obj-16", 1 ],
					"source" : [ "obj-18", 0 ]
				}

			}
, 			{
				"patchline" : 				{
					"destination" : [ "obj-20", 0 ],
					"source" : [ "obj-19", 0 ]
				}

			}
, 			{
				"patchline" : 				{
					"destination" : [ "obj-5", 0 ],
					"source" : [ "obj-2", 0 ]
				}

			}
, 			{
				"patchline" : 				{
					"destination" : [ "obj-21", 0 ],
					"source" : [ "obj-20", 0 ]
				}

			}
, 			{
				"patchline" : 				{
					"destination" : [ "obj-22", 0 ],
					"source" : [ "obj-20", 1 ]
				}

			}
, 			{
				"patchline" : 				{
					"destination" : [ "obj-23", 0 ],
					"source" : [ "obj-20", 2 ]
				}

			}
, 			{
				"patchline" : 				{
					"destination" : [ "obj-56", 1 ],
					"source" : [ "obj-25", 0 ]
				}

			}
, 			{
				"patchline" : 				{
					"destination" : [ "obj-29", 0 ],
					"source" : [ "obj-26", 1 ]
				}

			}
, 			{
				"patchline" : 				{
					"destination" : [ "obj-29", 1 ],
					"source" : [ "obj-26", 0 ]
				}

			}
, 			{
				"patchline" : 				{
					"destination" : [ "obj-24", 0 ],
					"source" : [ "obj-27", 0 ]
				}

			}
, 			{
				"patchline" : 				{
					"destination" : [ "obj-26", 0 ],
					"order" : 0,
					"source" : [ "obj-28", 0 ]
				}

			}
, 			{
				"patchline" : 				{
					"destination" : [ "obj-30", 0 ],
					"order" : 1,
					"source" : [ "obj-28", 0 ]
				}

			}
, 			{
				"patchline" : 				{
					"destination" : [ "obj-31", 0 ],
					"source" : [ "obj-29", 0 ]
				}

			}
, 			{
				"patchline" : 				{
					"destination" : [ "obj-25", 0 ],
					"source" : [ "obj-30", 0 ]
				}

			}
, 			{
				"patchline" : 				{
					"destination" : [ "obj-13", 0 ],
					"source" : [ "obj-34", 0 ]
				}

			}
, 			{
				"patchline" : 				{
					"destination" : [ "obj-34", 0 ],
					"source" : [ "obj-35", 0 ]
				}

			}
, 			{
				"patchline" : 				{
					"destination" : [ "obj-40", 0 ],
					"source" : [ "obj-37", 0 ]
				}

			}
, 			{
				"patchline" : 				{
					"destination" : [ "obj-35", 0 ],
					"source" : [ "obj-38", 0 ]
				}

			}
, 			{
				"patchline" : 				{
					"destination" : [ "obj-52", 0 ],
					"source" : [ "obj-4", 0 ]
				}

			}
, 			{
				"patchline" : 				{
					"destination" : [ "obj-23", 0 ],
					"source" : [ "obj-40", 0 ]
				}

			}
, 			{
				"patchline" : 				{
					"destination" : [ "obj-22", 0 ],
					"source" : [ "obj-41", 0 ]
				}

			}
, 			{
				"patchline" : 				{
					"destination" : [ "obj-37", 0 ],
					"order" : 0,
					"source" : [ "obj-42", 0 ]
				}

			}
, 			{
				"patchline" : 				{
					"destination" : [ "obj-41", 0 ],
					"order" : 1,
					"source" : [ "obj-42", 0 ]
				}

			}
, 			{
				"patchline" : 				{
					"destination" : [ "obj-21", 0 ],
					"source" : [ "obj-43", 0 ]
				}

			}
, 			{
				"patchline" : 				{
					"destination" : [ "obj-42", 0 ],
					"order" : 0,
					"source" : [ "obj-44", 0 ]
				}

			}
, 			{
				"patchline" : 				{
					"destination" : [ "obj-43", 0 ],
					"order" : 1,
					"source" : [ "obj-44", 0 ]
				}

			}
, 			{
				"patchline" : 				{
					"destination" : [ "obj-46", 0 ],
					"source" : [ "obj-45", 0 ]
				}

			}
, 			{
				"patchline" : 				{
					"destination" : [ "obj-28", 0 ],
					"source" : [ "obj-46", 0 ]
				}

			}
, 			{
				"patchline" : 				{
					"destination" : [ "obj-6", 1 ],
					"source" : [ "obj-47", 0 ]
				}

			}
, 			{
				"patchline" : 				{
					"destination" : [ "obj-51", 0 ],
					"source" : [ "obj-5", 0 ]
				}

			}
, 			{
				"patchline" : 				{
					"destination" : [ "obj-6", 0 ],
					"source" : [ "obj-51", 0 ]
				}

			}
, 			{
				"patchline" : 				{
					"destination" : [ "obj-2", 0 ],
					"source" : [ "obj-52", 0 ]
				}

			}
, 			{
				"patchline" : 				{
					"destination" : [ "obj-1", 0 ],
					"source" : [ "obj-6", 0 ]
				}

			}
, 			{
				"patchline" : 				{
					"destination" : [ "obj-19", 0 ],
					"source" : [ "obj-7", 0 ]
				}

			}
, 			{
				"patchline" : 				{
					"destination" : [ "obj-9", 0 ],
					"source" : [ "obj-7", 1 ]
				}

			}
, 			{
				"patchline" : 				{
					"destination" : [ "obj-7", 0 ],
					"source" : [ "obj-8", 6 ]
				}

			}
, 			{
				"patchline" : 				{
					"destination" : [ "obj-6", 1 ],
					"midpoints" : [ 703.5, 728.0, 673.75, 728.0, 673.75, 197.0, 799.5, 197.0 ],
					"source" : [ "obj-9", 0 ]
				}

			}
 ],
		"dependency_cache" : [ 			{
				"name" : "cnmat.o.io.mouse.maxpat",
				"bootpath" : "~/Documents/Max 8/Packages/Music-and-Computing/patchers/io",
				"patcherrelativepath" : "../../../../Max 8/Packages/Music-and-Computing/patchers/io",
				"type" : "JSON",
				"implicit" : 1
			}
, 			{
				"name" : "cnmat.loadbang.maxpat",
				"bootpath" : "~/Documents/Max 8/Packages/Music-and-Computing/patchers/internal",
				"patcherrelativepath" : "../../../../Max 8/Packages/Music-and-Computing/patchers/internal",
				"type" : "JSON",
				"implicit" : 1
			}
, 			{
				"name" : "mo.jerk.maxpat",
				"bootpath" : "~/Documents/Max 8/Library/modosc",
				"patcherrelativepath" : "../../../../Max 8/Library/modosc",
				"type" : "JSON",
				"implicit" : 1
			}
, 			{
				"name" : "mo.acceleration.maxpat",
				"bootpath" : "~/Documents/Max 8/Library/modosc",
				"patcherrelativepath" : "../../../../Max 8/Library/modosc",
				"type" : "JSON",
				"implicit" : 1
			}
, 			{
				"name" : "mo.velocity.maxpat",
				"bootpath" : "~/Documents/Max 8/Library/modosc",
				"patcherrelativepath" : "../../../../Max 8/Library/modosc",
				"type" : "JSON",
				"implicit" : 1
			}
, 			{
				"name" : "o.expr.codebox.mxo",
				"type" : "iLaX"
			}
, 			{
				"name" : "o.pack.mxo",
				"type" : "iLaX"
			}
, 			{
				"name" : "o.union.mxo",
				"type" : "iLaX"
			}
, 			{
				"name" : "o.route.mxo",
				"type" : "iLaX"
			}
, 			{
				"name" : "o.prepend.mxo",
				"type" : "iLaX"
			}
, 			{
				"name" : "o.compose.mxo",
				"type" : "iLaX"
			}
, 			{
				"name" : "o.var.mxo",
				"type" : "iLaX"
			}
, 			{
				"name" : "o.cond.mxo",
				"type" : "iLaX"
			}
, 			{
				"name" : "o.timetag.mxo",
				"type" : "iLaX"
			}
, 			{
				"name" : "o.change.mxo",
				"type" : "iLaX"
			}
, 			{
				"name" : "o.select.mxo",
				"type" : "iLaX"
			}
 ],
		"autosave" : 0
	}

}
